%TF.GenerationSoftware,KiCad,Pcbnew,(5.1.4)-1*%
%TF.CreationDate,2021-10-06T22:06:40+03:00*%
%TF.ProjectId,IRBE_elektro_bar,49524245-5f65-46c6-956b-74726f5f6261,rev?*%
%TF.SameCoordinates,Original*%
%TF.FileFunction,Copper,L2,Bot*%
%TF.FilePolarity,Positive*%
%FSLAX46Y46*%
G04 Gerber Fmt 4.6, Leading zero omitted, Abs format (unit mm)*
G04 Created by KiCad (PCBNEW (5.1.4)-1) date 2021-10-06 22:06:40*
%MOMM*%
%LPD*%
G04 APERTURE LIST*
%TA.AperFunction,ComponentPad*%
%ADD10O,1.400000X1.400000*%
%TD*%
%TA.AperFunction,ComponentPad*%
%ADD11C,1.400000*%
%TD*%
%TA.AperFunction,ComponentPad*%
%ADD12C,1.640000*%
%TD*%
%TA.AperFunction,ViaPad*%
%ADD13C,0.800000*%
%TD*%
%TA.AperFunction,ViaPad*%
%ADD14C,1.800000*%
%TD*%
%TA.AperFunction,Conductor*%
%ADD15C,0.350000*%
%TD*%
%TA.AperFunction,Conductor*%
%ADD16C,0.500000*%
%TD*%
%TA.AperFunction,Conductor*%
%ADD17C,0.254000*%
%TD*%
G04 APERTURE END LIST*
D10*
%TO.P,BT2,2*%
%TO.N,Net-(BT2-Pad2)*%
X81008800Y-115939200D03*
D11*
%TO.P,BT2,1*%
%TO.N,Net-(BT1-Pad2)*%
X83548800Y-115939200D03*
%TD*%
D10*
%TO.P,BT1,2*%
%TO.N,Net-(BT1-Pad2)*%
X86546000Y-115964600D03*
D11*
%TO.P,BT1,1*%
%TO.N,Net-(BT1-Pad1)*%
X89086000Y-115964600D03*
%TD*%
D12*
%TO.P,Connector1,1*%
%TO.N,GND*%
X79870600Y-171704800D03*
%TO.P,Connector1,24*%
%TO.N,N/C*%
X79870600Y-169164800D03*
%TO.P,Connector1,2*%
%TO.N,4V*%
X77330600Y-171704800D03*
%TO.P,Connector1,23*%
%TO.N,N/C*%
X77330600Y-169164800D03*
%TO.P,Connector1,3*%
%TO.N,3.3V*%
X74790600Y-171704800D03*
%TO.P,Connector1,22*%
%TO.N,N/C*%
X74790600Y-169164800D03*
%TO.P,Connector1,4*%
X72250600Y-171704800D03*
%TO.P,Connector1,21*%
X72250600Y-169164800D03*
%TO.P,Connector1,5*%
X69710600Y-171704800D03*
%TO.P,Connector1,20*%
X69710600Y-169164800D03*
%TO.P,Connector1,6*%
X67170600Y-171704800D03*
%TO.P,Connector1,19*%
X67170600Y-169164800D03*
%TO.P,Connector1,7*%
X64630600Y-171704800D03*
%TO.P,Connector1,18*%
X64630600Y-169164800D03*
%TO.P,Connector1,8*%
X62090600Y-171704800D03*
%TO.P,Connector1,17*%
X62090600Y-169164800D03*
%TO.P,Connector1,9*%
X59550600Y-171704800D03*
%TO.P,Connector1,16*%
X59550600Y-169164800D03*
%TO.P,Connector1,10*%
X57010600Y-171704800D03*
%TO.P,Connector1,15*%
X57010600Y-169164800D03*
%TO.P,Connector1,11*%
X54470600Y-171704800D03*
%TO.P,Connector1,14*%
X54470600Y-169164800D03*
%TO.P,Connector1,12*%
%TO.N,GND*%
X51930600Y-171704800D03*
%TO.P,Connector1,13*%
%TO.N,N/C*%
X51930600Y-169164800D03*
%TD*%
D13*
%TO.N,Net-(BT2-Pad2)*%
X77275000Y-122035200D03*
D14*
%TO.N,GND*%
X83750000Y-172925000D03*
X85900000Y-172900000D03*
X88150000Y-172875000D03*
X90500000Y-172875000D03*
X92875000Y-172850000D03*
X95025000Y-172825000D03*
X96925000Y-172025000D03*
X85900000Y-177275000D03*
X88025000Y-177225000D03*
X90475000Y-177200000D03*
X92900000Y-177175000D03*
X95050000Y-177100000D03*
X97125000Y-177150000D03*
X85925000Y-179725000D03*
X88075000Y-179750000D03*
X90475000Y-179650000D03*
X92850000Y-179525000D03*
X94975000Y-179500000D03*
X97350000Y-179550000D03*
X32775000Y-164500000D03*
X42775000Y-168550000D03*
X44950000Y-168575000D03*
X47125000Y-168575000D03*
X49050000Y-168500000D03*
X49125000Y-170900000D03*
X47050000Y-171000000D03*
X44950000Y-170975000D03*
X42850000Y-170750000D03*
X46050000Y-172825000D03*
X48200000Y-172775000D03*
X34550000Y-113675000D03*
X37090000Y-113675000D03*
X39630000Y-113675000D03*
X42170000Y-113675000D03*
X44710000Y-113675000D03*
X47250000Y-113675000D03*
X49790000Y-113675000D03*
X52330000Y-113675000D03*
X34550000Y-116215000D03*
X37090000Y-116215000D03*
X39630000Y-116215000D03*
X42170000Y-116215000D03*
X44710000Y-116215000D03*
X47250000Y-116215000D03*
X49790000Y-116215000D03*
X52330000Y-116215000D03*
X34550000Y-118755000D03*
X37090000Y-118755000D03*
X39630000Y-118755000D03*
X42170000Y-118755000D03*
X44710000Y-118755000D03*
X47250000Y-118755000D03*
X49790000Y-118755000D03*
X52330000Y-118755000D03*
X34550000Y-121295000D03*
X37090000Y-121295000D03*
X39630000Y-121295000D03*
X42170000Y-121295000D03*
X44710000Y-121295000D03*
X47250000Y-121295000D03*
X49790000Y-121295000D03*
X52330000Y-121295000D03*
X34550000Y-123835000D03*
X37090000Y-123835000D03*
X39630000Y-123835000D03*
X42170000Y-123835000D03*
X44710000Y-123835000D03*
X47250000Y-123835000D03*
X49790000Y-123835000D03*
X52330000Y-123835000D03*
X34550000Y-126375000D03*
X37090000Y-126375000D03*
X39630000Y-126375000D03*
X42170000Y-126375000D03*
X44710000Y-126375000D03*
X47250000Y-126375000D03*
X49790000Y-126375000D03*
X52330000Y-126375000D03*
X34550000Y-128915000D03*
X37090000Y-128915000D03*
X39630000Y-128915000D03*
X42170000Y-128915000D03*
X44710000Y-128915000D03*
X47250000Y-128915000D03*
X49790000Y-128915000D03*
X52330000Y-128915000D03*
X34550000Y-131455000D03*
X37090000Y-131455000D03*
X39630000Y-131455000D03*
X42170000Y-131455000D03*
X44710000Y-131455000D03*
X47250000Y-131455000D03*
X49790000Y-131455000D03*
X52330000Y-131455000D03*
X95225000Y-114500000D03*
X97765000Y-114500000D03*
X95225000Y-117040000D03*
X97765000Y-117040000D03*
X95225000Y-119580000D03*
X97765000Y-119580000D03*
X95225000Y-122120000D03*
X97765000Y-122120000D03*
X95225000Y-124660000D03*
X97765000Y-124660000D03*
X95225000Y-127200000D03*
X97765000Y-127200000D03*
X95225000Y-129740000D03*
X97765000Y-129740000D03*
X95225000Y-132280000D03*
X97765000Y-132280000D03*
X95225000Y-134820000D03*
X97765000Y-134820000D03*
X95225000Y-137360000D03*
X97765000Y-137360000D03*
X63475000Y-115450000D03*
X65950000Y-115400000D03*
X68350000Y-115425000D03*
X70700000Y-115400000D03*
X72900000Y-115400000D03*
X75225000Y-115450000D03*
X77825000Y-115500000D03*
X77200000Y-118250000D03*
X75100000Y-118350000D03*
X72725000Y-118375000D03*
X70575000Y-118225000D03*
X68200000Y-118025000D03*
X65850000Y-117975000D03*
X63650000Y-117975000D03*
X61525000Y-116775000D03*
X59850000Y-118400000D03*
X56275000Y-140675000D03*
X58815000Y-140675000D03*
X61355000Y-140675000D03*
X63895000Y-140675000D03*
X66435000Y-140675000D03*
X56275000Y-143215000D03*
X58815000Y-143215000D03*
X61355000Y-143215000D03*
X63895000Y-143215000D03*
X66435000Y-143215000D03*
X56275000Y-145755000D03*
X58815000Y-145755000D03*
X61355000Y-145755000D03*
X63895000Y-145755000D03*
X66435000Y-145755000D03*
X56275000Y-148295000D03*
X58815000Y-148295000D03*
X61355000Y-148295000D03*
X63895000Y-148295000D03*
X66435000Y-148295000D03*
X79600000Y-145375000D03*
X82140000Y-145375000D03*
X84680000Y-145375000D03*
X79600000Y-147915000D03*
X82140000Y-147915000D03*
X84680000Y-147915000D03*
X35325000Y-177025000D03*
X37865000Y-177025000D03*
X40405000Y-177025000D03*
X42945000Y-177025000D03*
X45485000Y-177025000D03*
X48025000Y-177025000D03*
X50565000Y-177025000D03*
X53105000Y-177025000D03*
X55645000Y-177025000D03*
X58185000Y-177025000D03*
X60725000Y-177025000D03*
X63265000Y-177025000D03*
X65805000Y-177025000D03*
X68345000Y-177025000D03*
X70885000Y-177025000D03*
X73425000Y-177025000D03*
X75965000Y-177025000D03*
X78505000Y-177025000D03*
X81045000Y-177025000D03*
X83585000Y-177025000D03*
X35325000Y-179565000D03*
X37865000Y-179565000D03*
X40405000Y-179565000D03*
X42945000Y-179565000D03*
X45485000Y-179565000D03*
X48025000Y-179565000D03*
X50565000Y-179565000D03*
X53105000Y-179565000D03*
X55645000Y-179565000D03*
X58185000Y-179565000D03*
X60725000Y-179565000D03*
X63265000Y-179565000D03*
X65805000Y-179565000D03*
X68345000Y-179565000D03*
X70885000Y-179565000D03*
X73425000Y-179565000D03*
X75965000Y-179565000D03*
X78505000Y-179565000D03*
X81045000Y-179565000D03*
X83585000Y-179565000D03*
X35275000Y-164500000D03*
X37775000Y-164500000D03*
X32775000Y-167040000D03*
X35275000Y-167040000D03*
X37775000Y-167040000D03*
X32775000Y-169580000D03*
X35275000Y-169580000D03*
X37775000Y-169580000D03*
X32775000Y-172120000D03*
X35275000Y-172120000D03*
X37775000Y-172120000D03*
X32775000Y-174660000D03*
X35275000Y-174660000D03*
X37775000Y-174660000D03*
X33000000Y-176875000D03*
X34475000Y-133825000D03*
X34500000Y-136175000D03*
X36925000Y-136125000D03*
X36925000Y-133875000D03*
X39650000Y-134075000D03*
X39700000Y-136125000D03*
X42150000Y-134400000D03*
X42150000Y-136450000D03*
X44750000Y-134500000D03*
X44700000Y-136750000D03*
X47175000Y-133725000D03*
X72725000Y-120925000D03*
X95200000Y-140450000D03*
X97850000Y-140400000D03*
X83850000Y-170575000D03*
X83925000Y-168075000D03*
X83925000Y-165750000D03*
X83900000Y-163575000D03*
X86025000Y-163775000D03*
X86200000Y-166150000D03*
X86350000Y-168400000D03*
X86250000Y-170625000D03*
X81375000Y-163600000D03*
X79275000Y-163725000D03*
X77325000Y-163750000D03*
X75250000Y-164075000D03*
X75525000Y-166150000D03*
X77675000Y-166325000D03*
X79875000Y-166300000D03*
X81850000Y-165525000D03*
X81875000Y-167525000D03*
D13*
%TO.N,VSS*%
X42050000Y-144450000D03*
X49027800Y-138808400D03*
%TO.N,Net-(Q4-Pad1)*%
X47580000Y-153896000D03*
X51644000Y-162750000D03*
%TO.N,Net-(Q6-Pad1)*%
X89875000Y-156900000D03*
X82750000Y-152025000D03*
%TO.N,Net-(C4-Pad2)*%
X75700200Y-122035200D03*
X74455600Y-129172600D03*
%TO.N,Net-(Rpgood1-Pad2)*%
X88725000Y-163900000D03*
X84400000Y-156750000D03*
%TD*%
D15*
%TO.N,Net-(BT2-Pad2)*%
X81008800Y-116929149D02*
X81008800Y-115939200D01*
X81008800Y-118867085D02*
X81008800Y-116929149D01*
X77840685Y-122035200D02*
X81008800Y-118867085D01*
X77275000Y-122035200D02*
X77840685Y-122035200D01*
D16*
%TO.N,VSS*%
X48462115Y-138808400D02*
X49027800Y-138808400D01*
X47125915Y-138808400D02*
X48462115Y-138808400D01*
X42050000Y-143884315D02*
X47125915Y-138808400D01*
X42050000Y-144450000D02*
X42050000Y-143884315D01*
D15*
%TO.N,Net-(Q4-Pad1)*%
X51644000Y-157960000D02*
X47580000Y-153896000D01*
X51644000Y-162750000D02*
X51644000Y-157960000D01*
%TO.N,Net-(Q6-Pad1)*%
X85050000Y-152075000D02*
X89875000Y-156900000D01*
X85000000Y-152025000D02*
X85050000Y-152075000D01*
X82750000Y-152025000D02*
X85000000Y-152025000D01*
%TO.N,Net-(C4-Pad2)*%
X74455600Y-123279800D02*
X75700200Y-122035200D01*
X74455600Y-129172600D02*
X74455600Y-123279800D01*
%TO.N,Net-(Rpgood1-Pad2)*%
X84400000Y-159575000D02*
X88725000Y-163900000D01*
X84400000Y-156750000D02*
X84400000Y-159575000D01*
%TD*%
D17*
%TO.N,GND*%
G36*
X96668683Y-112213973D02*
G01*
X97412491Y-112417456D01*
X98108505Y-112749438D01*
X98734730Y-113199426D01*
X99271377Y-113753203D01*
X99701471Y-114393251D01*
X100011429Y-115099353D01*
X100192665Y-115854257D01*
X100240600Y-116507007D01*
X100240601Y-176453397D01*
X100169427Y-177250883D01*
X99965944Y-177994690D01*
X99633963Y-178690704D01*
X99183974Y-179316930D01*
X98630197Y-179853577D01*
X97990149Y-180283671D01*
X97284047Y-180593629D01*
X96529143Y-180774865D01*
X95876393Y-180822800D01*
X44427838Y-180822800D01*
X35756997Y-180807361D01*
X35132517Y-180751627D01*
X34388710Y-180548144D01*
X33692696Y-180216163D01*
X33066470Y-179766174D01*
X32529823Y-179212397D01*
X32099729Y-178572349D01*
X31789771Y-177866247D01*
X31608535Y-177111343D01*
X31560600Y-176458593D01*
X31560600Y-169021495D01*
X50475600Y-169021495D01*
X50475600Y-169308105D01*
X50531515Y-169589208D01*
X50641196Y-169854001D01*
X50800428Y-170092308D01*
X51003092Y-170294972D01*
X51241399Y-170454204D01*
X51506192Y-170563885D01*
X51787295Y-170619800D01*
X52073905Y-170619800D01*
X52355008Y-170563885D01*
X52619801Y-170454204D01*
X52858108Y-170294972D01*
X53060772Y-170092308D01*
X53200600Y-169883041D01*
X53340428Y-170092308D01*
X53543092Y-170294972D01*
X53752359Y-170434800D01*
X53543092Y-170574628D01*
X53340428Y-170777292D01*
X53181196Y-171015599D01*
X53071515Y-171280392D01*
X53015600Y-171561495D01*
X53015600Y-171848105D01*
X53071515Y-172129208D01*
X53181196Y-172394001D01*
X53340428Y-172632308D01*
X53543092Y-172834972D01*
X53781399Y-172994204D01*
X54046192Y-173103885D01*
X54327295Y-173159800D01*
X54613905Y-173159800D01*
X54895008Y-173103885D01*
X55159801Y-172994204D01*
X55398108Y-172834972D01*
X55600772Y-172632308D01*
X55740600Y-172423041D01*
X55880428Y-172632308D01*
X56083092Y-172834972D01*
X56321399Y-172994204D01*
X56586192Y-173103885D01*
X56867295Y-173159800D01*
X57153905Y-173159800D01*
X57435008Y-173103885D01*
X57699801Y-172994204D01*
X57938108Y-172834972D01*
X58140772Y-172632308D01*
X58280600Y-172423041D01*
X58420428Y-172632308D01*
X58623092Y-172834972D01*
X58861399Y-172994204D01*
X59126192Y-173103885D01*
X59407295Y-173159800D01*
X59693905Y-173159800D01*
X59975008Y-173103885D01*
X60239801Y-172994204D01*
X60478108Y-172834972D01*
X60680772Y-172632308D01*
X60820600Y-172423041D01*
X60960428Y-172632308D01*
X61163092Y-172834972D01*
X61401399Y-172994204D01*
X61666192Y-173103885D01*
X61947295Y-173159800D01*
X62233905Y-173159800D01*
X62515008Y-173103885D01*
X62779801Y-172994204D01*
X63018108Y-172834972D01*
X63220772Y-172632308D01*
X63360600Y-172423041D01*
X63500428Y-172632308D01*
X63703092Y-172834972D01*
X63941399Y-172994204D01*
X64206192Y-173103885D01*
X64487295Y-173159800D01*
X64773905Y-173159800D01*
X65055008Y-173103885D01*
X65319801Y-172994204D01*
X65558108Y-172834972D01*
X65760772Y-172632308D01*
X65900600Y-172423041D01*
X66040428Y-172632308D01*
X66243092Y-172834972D01*
X66481399Y-172994204D01*
X66746192Y-173103885D01*
X67027295Y-173159800D01*
X67313905Y-173159800D01*
X67595008Y-173103885D01*
X67859801Y-172994204D01*
X68098108Y-172834972D01*
X68300772Y-172632308D01*
X68440600Y-172423041D01*
X68580428Y-172632308D01*
X68783092Y-172834972D01*
X69021399Y-172994204D01*
X69286192Y-173103885D01*
X69567295Y-173159800D01*
X69853905Y-173159800D01*
X70135008Y-173103885D01*
X70399801Y-172994204D01*
X70638108Y-172834972D01*
X70840772Y-172632308D01*
X70980600Y-172423041D01*
X71120428Y-172632308D01*
X71323092Y-172834972D01*
X71561399Y-172994204D01*
X71826192Y-173103885D01*
X72107295Y-173159800D01*
X72393905Y-173159800D01*
X72675008Y-173103885D01*
X72939801Y-172994204D01*
X73178108Y-172834972D01*
X73380772Y-172632308D01*
X73520600Y-172423041D01*
X73660428Y-172632308D01*
X73863092Y-172834972D01*
X74101399Y-172994204D01*
X74366192Y-173103885D01*
X74647295Y-173159800D01*
X74933905Y-173159800D01*
X75215008Y-173103885D01*
X75479801Y-172994204D01*
X75718108Y-172834972D01*
X75920772Y-172632308D01*
X76060600Y-172423041D01*
X76200428Y-172632308D01*
X76403092Y-172834972D01*
X76641399Y-172994204D01*
X76906192Y-173103885D01*
X77187295Y-173159800D01*
X77473905Y-173159800D01*
X77755008Y-173103885D01*
X78019801Y-172994204D01*
X78258108Y-172834972D01*
X78460772Y-172632308D01*
X78620004Y-172394001D01*
X78729685Y-172129208D01*
X78785600Y-171848105D01*
X78785600Y-171561495D01*
X78729685Y-171280392D01*
X78620004Y-171015599D01*
X78460772Y-170777292D01*
X78258108Y-170574628D01*
X78048841Y-170434800D01*
X78258108Y-170294972D01*
X78460772Y-170092308D01*
X78600600Y-169883041D01*
X78740428Y-170092308D01*
X78943092Y-170294972D01*
X79181399Y-170454204D01*
X79446192Y-170563885D01*
X79727295Y-170619800D01*
X80013905Y-170619800D01*
X80295008Y-170563885D01*
X80559801Y-170454204D01*
X80798108Y-170294972D01*
X81000772Y-170092308D01*
X81160004Y-169854001D01*
X81269685Y-169589208D01*
X81325600Y-169308105D01*
X81325600Y-169021495D01*
X81269685Y-168740392D01*
X81160004Y-168475599D01*
X81000772Y-168237292D01*
X80798108Y-168034628D01*
X80559801Y-167875396D01*
X80295008Y-167765715D01*
X80013905Y-167709800D01*
X79727295Y-167709800D01*
X79446192Y-167765715D01*
X79181399Y-167875396D01*
X78943092Y-168034628D01*
X78740428Y-168237292D01*
X78600600Y-168446559D01*
X78460772Y-168237292D01*
X78258108Y-168034628D01*
X78019801Y-167875396D01*
X77755008Y-167765715D01*
X77473905Y-167709800D01*
X77187295Y-167709800D01*
X76906192Y-167765715D01*
X76641399Y-167875396D01*
X76403092Y-168034628D01*
X76200428Y-168237292D01*
X76060600Y-168446559D01*
X75920772Y-168237292D01*
X75718108Y-168034628D01*
X75479801Y-167875396D01*
X75215008Y-167765715D01*
X74933905Y-167709800D01*
X74647295Y-167709800D01*
X74366192Y-167765715D01*
X74101399Y-167875396D01*
X73863092Y-168034628D01*
X73660428Y-168237292D01*
X73520600Y-168446559D01*
X73380772Y-168237292D01*
X73178108Y-168034628D01*
X72939801Y-167875396D01*
X72675008Y-167765715D01*
X72393905Y-167709800D01*
X72107295Y-167709800D01*
X71826192Y-167765715D01*
X71561399Y-167875396D01*
X71323092Y-168034628D01*
X71120428Y-168237292D01*
X70980600Y-168446559D01*
X70840772Y-168237292D01*
X70638108Y-168034628D01*
X70399801Y-167875396D01*
X70135008Y-167765715D01*
X69853905Y-167709800D01*
X69567295Y-167709800D01*
X69286192Y-167765715D01*
X69021399Y-167875396D01*
X68783092Y-168034628D01*
X68580428Y-168237292D01*
X68440600Y-168446559D01*
X68300772Y-168237292D01*
X68098108Y-168034628D01*
X67859801Y-167875396D01*
X67595008Y-167765715D01*
X67313905Y-167709800D01*
X67027295Y-167709800D01*
X66746192Y-167765715D01*
X66481399Y-167875396D01*
X66243092Y-168034628D01*
X66040428Y-168237292D01*
X65900600Y-168446559D01*
X65760772Y-168237292D01*
X65558108Y-168034628D01*
X65319801Y-167875396D01*
X65055008Y-167765715D01*
X64773905Y-167709800D01*
X64487295Y-167709800D01*
X64206192Y-167765715D01*
X63941399Y-167875396D01*
X63703092Y-168034628D01*
X63500428Y-168237292D01*
X63360600Y-168446559D01*
X63220772Y-168237292D01*
X63018108Y-168034628D01*
X62779801Y-167875396D01*
X62515008Y-167765715D01*
X62233905Y-167709800D01*
X61947295Y-167709800D01*
X61666192Y-167765715D01*
X61401399Y-167875396D01*
X61163092Y-168034628D01*
X60960428Y-168237292D01*
X60820600Y-168446559D01*
X60680772Y-168237292D01*
X60478108Y-168034628D01*
X60239801Y-167875396D01*
X59975008Y-167765715D01*
X59693905Y-167709800D01*
X59407295Y-167709800D01*
X59126192Y-167765715D01*
X58861399Y-167875396D01*
X58623092Y-168034628D01*
X58420428Y-168237292D01*
X58280600Y-168446559D01*
X58140772Y-168237292D01*
X57938108Y-168034628D01*
X57699801Y-167875396D01*
X57435008Y-167765715D01*
X57153905Y-167709800D01*
X56867295Y-167709800D01*
X56586192Y-167765715D01*
X56321399Y-167875396D01*
X56083092Y-168034628D01*
X55880428Y-168237292D01*
X55740600Y-168446559D01*
X55600772Y-168237292D01*
X55398108Y-168034628D01*
X55159801Y-167875396D01*
X54895008Y-167765715D01*
X54613905Y-167709800D01*
X54327295Y-167709800D01*
X54046192Y-167765715D01*
X53781399Y-167875396D01*
X53543092Y-168034628D01*
X53340428Y-168237292D01*
X53200600Y-168446559D01*
X53060772Y-168237292D01*
X52858108Y-168034628D01*
X52619801Y-167875396D01*
X52355008Y-167765715D01*
X52073905Y-167709800D01*
X51787295Y-167709800D01*
X51506192Y-167765715D01*
X51241399Y-167875396D01*
X51003092Y-168034628D01*
X50800428Y-168237292D01*
X50641196Y-168475599D01*
X50531515Y-168740392D01*
X50475600Y-169021495D01*
X31560600Y-169021495D01*
X31560600Y-153794061D01*
X46545000Y-153794061D01*
X46545000Y-153997939D01*
X46584774Y-154197898D01*
X46662795Y-154386256D01*
X46776063Y-154555774D01*
X46920226Y-154699937D01*
X47089744Y-154813205D01*
X47278102Y-154891226D01*
X47467359Y-154928871D01*
X50834001Y-158295514D01*
X50834000Y-162099300D01*
X50726795Y-162259744D01*
X50648774Y-162448102D01*
X50609000Y-162648061D01*
X50609000Y-162851939D01*
X50648774Y-163051898D01*
X50726795Y-163240256D01*
X50840063Y-163409774D01*
X50984226Y-163553937D01*
X51153744Y-163667205D01*
X51342102Y-163745226D01*
X51542061Y-163785000D01*
X51745939Y-163785000D01*
X51945898Y-163745226D01*
X52134256Y-163667205D01*
X52303774Y-163553937D01*
X52447937Y-163409774D01*
X52561205Y-163240256D01*
X52639226Y-163051898D01*
X52679000Y-162851939D01*
X52679000Y-162648061D01*
X52639226Y-162448102D01*
X52561205Y-162259744D01*
X52454000Y-162099300D01*
X52454000Y-157999788D01*
X52457919Y-157960000D01*
X52451539Y-157895226D01*
X52442280Y-157801212D01*
X52395963Y-157648527D01*
X52360951Y-157583024D01*
X52320749Y-157507810D01*
X52244893Y-157415380D01*
X52219528Y-157384472D01*
X52188618Y-157359105D01*
X51477574Y-156648061D01*
X83365000Y-156648061D01*
X83365000Y-156851939D01*
X83404774Y-157051898D01*
X83482795Y-157240256D01*
X83590000Y-157400700D01*
X83590001Y-159535202D01*
X83586081Y-159575000D01*
X83601721Y-159733787D01*
X83648038Y-159886473D01*
X83723251Y-160027189D01*
X83778852Y-160094939D01*
X83824473Y-160150528D01*
X83855383Y-160175895D01*
X87692129Y-164012642D01*
X87729774Y-164201898D01*
X87807795Y-164390256D01*
X87921063Y-164559774D01*
X88065226Y-164703937D01*
X88234744Y-164817205D01*
X88423102Y-164895226D01*
X88623061Y-164935000D01*
X88826939Y-164935000D01*
X89026898Y-164895226D01*
X89215256Y-164817205D01*
X89384774Y-164703937D01*
X89528937Y-164559774D01*
X89642205Y-164390256D01*
X89720226Y-164201898D01*
X89760000Y-164001939D01*
X89760000Y-163798061D01*
X89720226Y-163598102D01*
X89642205Y-163409744D01*
X89528937Y-163240226D01*
X89384774Y-163096063D01*
X89215256Y-162982795D01*
X89026898Y-162904774D01*
X88837642Y-162867129D01*
X85210000Y-159239488D01*
X85210000Y-157400700D01*
X85317205Y-157240256D01*
X85395226Y-157051898D01*
X85435000Y-156851939D01*
X85435000Y-156648061D01*
X85395226Y-156448102D01*
X85317205Y-156259744D01*
X85203937Y-156090226D01*
X85059774Y-155946063D01*
X84890256Y-155832795D01*
X84701898Y-155754774D01*
X84501939Y-155715000D01*
X84298061Y-155715000D01*
X84098102Y-155754774D01*
X83909744Y-155832795D01*
X83740226Y-155946063D01*
X83596063Y-156090226D01*
X83482795Y-156259744D01*
X83404774Y-156448102D01*
X83365000Y-156648061D01*
X51477574Y-156648061D01*
X48612871Y-153783359D01*
X48575226Y-153594102D01*
X48497205Y-153405744D01*
X48383937Y-153236226D01*
X48239774Y-153092063D01*
X48070256Y-152978795D01*
X47881898Y-152900774D01*
X47681939Y-152861000D01*
X47478061Y-152861000D01*
X47278102Y-152900774D01*
X47089744Y-152978795D01*
X46920226Y-153092063D01*
X46776063Y-153236226D01*
X46662795Y-153405744D01*
X46584774Y-153594102D01*
X46545000Y-153794061D01*
X31560600Y-153794061D01*
X31560600Y-151923061D01*
X81715000Y-151923061D01*
X81715000Y-152126939D01*
X81754774Y-152326898D01*
X81832795Y-152515256D01*
X81946063Y-152684774D01*
X82090226Y-152828937D01*
X82259744Y-152942205D01*
X82448102Y-153020226D01*
X82648061Y-153060000D01*
X82851939Y-153060000D01*
X83051898Y-153020226D01*
X83240256Y-152942205D01*
X83400700Y-152835000D01*
X84664488Y-152835000D01*
X88842129Y-157012642D01*
X88879774Y-157201898D01*
X88957795Y-157390256D01*
X89071063Y-157559774D01*
X89215226Y-157703937D01*
X89384744Y-157817205D01*
X89573102Y-157895226D01*
X89773061Y-157935000D01*
X89976939Y-157935000D01*
X90176898Y-157895226D01*
X90365256Y-157817205D01*
X90534774Y-157703937D01*
X90678937Y-157559774D01*
X90792205Y-157390256D01*
X90870226Y-157201898D01*
X90910000Y-157001939D01*
X90910000Y-156798061D01*
X90870226Y-156598102D01*
X90792205Y-156409744D01*
X90678937Y-156240226D01*
X90534774Y-156096063D01*
X90365256Y-155982795D01*
X90176898Y-155904774D01*
X89987642Y-155867129D01*
X85600900Y-151480388D01*
X85575528Y-151449472D01*
X85452189Y-151348251D01*
X85311473Y-151273037D01*
X85158788Y-151226720D01*
X85039791Y-151215000D01*
X85039788Y-151215000D01*
X85000000Y-151211081D01*
X84960212Y-151215000D01*
X83400700Y-151215000D01*
X83240256Y-151107795D01*
X83051898Y-151029774D01*
X82851939Y-150990000D01*
X82648061Y-150990000D01*
X82448102Y-151029774D01*
X82259744Y-151107795D01*
X82090226Y-151221063D01*
X81946063Y-151365226D01*
X81832795Y-151534744D01*
X81754774Y-151723102D01*
X81715000Y-151923061D01*
X31560600Y-151923061D01*
X31560600Y-144348061D01*
X41015000Y-144348061D01*
X41015000Y-144551939D01*
X41054774Y-144751898D01*
X41132795Y-144940256D01*
X41246063Y-145109774D01*
X41390226Y-145253937D01*
X41559744Y-145367205D01*
X41748102Y-145445226D01*
X41948061Y-145485000D01*
X42151939Y-145485000D01*
X42351898Y-145445226D01*
X42540256Y-145367205D01*
X42709774Y-145253937D01*
X42853937Y-145109774D01*
X42967205Y-144940256D01*
X43045226Y-144751898D01*
X43085000Y-144551939D01*
X43085000Y-144348061D01*
X43045226Y-144148102D01*
X43043048Y-144142845D01*
X47492494Y-139693400D01*
X48489346Y-139693400D01*
X48537544Y-139725605D01*
X48725902Y-139803626D01*
X48925861Y-139843400D01*
X49129739Y-139843400D01*
X49329698Y-139803626D01*
X49518056Y-139725605D01*
X49687574Y-139612337D01*
X49831737Y-139468174D01*
X49945005Y-139298656D01*
X50023026Y-139110298D01*
X50062800Y-138910339D01*
X50062800Y-138706461D01*
X50023026Y-138506502D01*
X49945005Y-138318144D01*
X49831737Y-138148626D01*
X49687574Y-138004463D01*
X49518056Y-137891195D01*
X49329698Y-137813174D01*
X49129739Y-137773400D01*
X48925861Y-137773400D01*
X48725902Y-137813174D01*
X48537544Y-137891195D01*
X48489346Y-137923400D01*
X47169384Y-137923400D01*
X47125915Y-137919119D01*
X47082446Y-137923400D01*
X47082438Y-137923400D01*
X46952425Y-137936205D01*
X46785602Y-137986811D01*
X46631856Y-138068989D01*
X46530868Y-138151868D01*
X46530866Y-138151870D01*
X46497098Y-138179583D01*
X46469385Y-138213351D01*
X41454952Y-143227785D01*
X41421184Y-143255498D01*
X41393471Y-143289266D01*
X41393468Y-143289269D01*
X41310590Y-143390256D01*
X41228411Y-143544002D01*
X41177805Y-143710825D01*
X41165000Y-143840838D01*
X41165000Y-143840846D01*
X41160719Y-143884315D01*
X41163606Y-143913632D01*
X41132795Y-143959744D01*
X41054774Y-144148102D01*
X41015000Y-144348061D01*
X31560600Y-144348061D01*
X31560600Y-129070661D01*
X73420600Y-129070661D01*
X73420600Y-129274539D01*
X73460374Y-129474498D01*
X73538395Y-129662856D01*
X73651663Y-129832374D01*
X73795826Y-129976537D01*
X73965344Y-130089805D01*
X74153702Y-130167826D01*
X74353661Y-130207600D01*
X74557539Y-130207600D01*
X74757498Y-130167826D01*
X74945856Y-130089805D01*
X75115374Y-129976537D01*
X75259537Y-129832374D01*
X75372805Y-129662856D01*
X75450826Y-129474498D01*
X75490600Y-129274539D01*
X75490600Y-129070661D01*
X75450826Y-128870702D01*
X75372805Y-128682344D01*
X75265600Y-128521900D01*
X75265600Y-123615312D01*
X75812841Y-123068071D01*
X76002098Y-123030426D01*
X76190456Y-122952405D01*
X76359974Y-122839137D01*
X76487600Y-122711511D01*
X76615226Y-122839137D01*
X76784744Y-122952405D01*
X76973102Y-123030426D01*
X77173061Y-123070200D01*
X77376939Y-123070200D01*
X77576898Y-123030426D01*
X77765256Y-122952405D01*
X77933519Y-122839976D01*
X77999473Y-122833480D01*
X78152158Y-122787163D01*
X78292874Y-122711949D01*
X78416213Y-122610728D01*
X78441585Y-122579812D01*
X81553419Y-119467979D01*
X81584328Y-119442613D01*
X81639919Y-119374875D01*
X81685549Y-119319275D01*
X81760762Y-119178559D01*
X81760763Y-119178558D01*
X81807080Y-119025873D01*
X81818800Y-118906876D01*
X81818800Y-118906874D01*
X81822719Y-118867086D01*
X81818800Y-118827298D01*
X81818800Y-117001464D01*
X81957355Y-116887755D01*
X82124182Y-116684475D01*
X82248147Y-116452554D01*
X82277020Y-116357372D01*
X82365739Y-116571559D01*
X82511838Y-116790213D01*
X82697787Y-116976162D01*
X82916441Y-117122261D01*
X83159395Y-117222896D01*
X83417314Y-117274200D01*
X83680286Y-117274200D01*
X83938205Y-117222896D01*
X84181159Y-117122261D01*
X84399813Y-116976162D01*
X84585762Y-116790213D01*
X84731861Y-116571559D01*
X84832496Y-116328605D01*
X84883800Y-116070686D01*
X84883800Y-115964600D01*
X85204541Y-115964600D01*
X85230317Y-116226306D01*
X85306653Y-116477954D01*
X85430618Y-116709875D01*
X85597445Y-116913155D01*
X85800725Y-117079982D01*
X86032646Y-117203947D01*
X86284294Y-117280283D01*
X86480421Y-117299600D01*
X86611579Y-117299600D01*
X86807706Y-117280283D01*
X87059354Y-117203947D01*
X87291275Y-117079982D01*
X87494555Y-116913155D01*
X87661382Y-116709875D01*
X87785347Y-116477954D01*
X87814220Y-116382772D01*
X87902939Y-116596959D01*
X88049038Y-116815613D01*
X88234987Y-117001562D01*
X88453641Y-117147661D01*
X88696595Y-117248296D01*
X88954514Y-117299600D01*
X89217486Y-117299600D01*
X89475405Y-117248296D01*
X89718359Y-117147661D01*
X89937013Y-117001562D01*
X90122962Y-116815613D01*
X90269061Y-116596959D01*
X90369696Y-116354005D01*
X90421000Y-116096086D01*
X90421000Y-115833114D01*
X90369696Y-115575195D01*
X90269061Y-115332241D01*
X90122962Y-115113587D01*
X89937013Y-114927638D01*
X89718359Y-114781539D01*
X89475405Y-114680904D01*
X89217486Y-114629600D01*
X88954514Y-114629600D01*
X88696595Y-114680904D01*
X88453641Y-114781539D01*
X88234987Y-114927638D01*
X88049038Y-115113587D01*
X87902939Y-115332241D01*
X87814220Y-115546428D01*
X87785347Y-115451246D01*
X87661382Y-115219325D01*
X87494555Y-115016045D01*
X87291275Y-114849218D01*
X87059354Y-114725253D01*
X86807706Y-114648917D01*
X86611579Y-114629600D01*
X86480421Y-114629600D01*
X86284294Y-114648917D01*
X86032646Y-114725253D01*
X85800725Y-114849218D01*
X85597445Y-115016045D01*
X85430618Y-115219325D01*
X85306653Y-115451246D01*
X85230317Y-115702894D01*
X85204541Y-115964600D01*
X84883800Y-115964600D01*
X84883800Y-115807714D01*
X84832496Y-115549795D01*
X84731861Y-115306841D01*
X84585762Y-115088187D01*
X84399813Y-114902238D01*
X84181159Y-114756139D01*
X83938205Y-114655504D01*
X83680286Y-114604200D01*
X83417314Y-114604200D01*
X83159395Y-114655504D01*
X82916441Y-114756139D01*
X82697787Y-114902238D01*
X82511838Y-115088187D01*
X82365739Y-115306841D01*
X82277020Y-115521028D01*
X82248147Y-115425846D01*
X82124182Y-115193925D01*
X81957355Y-114990645D01*
X81754075Y-114823818D01*
X81522154Y-114699853D01*
X81270506Y-114623517D01*
X81074379Y-114604200D01*
X80943221Y-114604200D01*
X80747094Y-114623517D01*
X80495446Y-114699853D01*
X80263525Y-114823818D01*
X80060245Y-114990645D01*
X79893418Y-115193925D01*
X79769453Y-115425846D01*
X79693117Y-115677494D01*
X79667341Y-115939200D01*
X79693117Y-116200906D01*
X79769453Y-116452554D01*
X79893418Y-116684475D01*
X80060245Y-116887755D01*
X80198801Y-117001465D01*
X80198800Y-118531572D01*
X77657155Y-121073218D01*
X77576898Y-121039974D01*
X77376939Y-121000200D01*
X77173061Y-121000200D01*
X76973102Y-121039974D01*
X76784744Y-121117995D01*
X76615226Y-121231263D01*
X76487600Y-121358889D01*
X76359974Y-121231263D01*
X76190456Y-121117995D01*
X76002098Y-121039974D01*
X75802139Y-121000200D01*
X75598261Y-121000200D01*
X75398302Y-121039974D01*
X75209944Y-121117995D01*
X75040426Y-121231263D01*
X74896263Y-121375426D01*
X74782995Y-121544944D01*
X74704974Y-121733302D01*
X74667329Y-121922559D01*
X73910983Y-122678905D01*
X73880073Y-122704272D01*
X73854708Y-122735180D01*
X73778851Y-122827611D01*
X73703638Y-122968327D01*
X73657321Y-123121013D01*
X73641681Y-123279800D01*
X73645601Y-123319598D01*
X73645600Y-128521900D01*
X73538395Y-128682344D01*
X73460374Y-128870702D01*
X73420600Y-129070661D01*
X31560600Y-129070661D01*
X31560600Y-116512192D01*
X31631773Y-115714717D01*
X31835256Y-114970909D01*
X32167238Y-114274895D01*
X32617226Y-113648670D01*
X33171003Y-113112023D01*
X33811051Y-112681929D01*
X34517153Y-112371971D01*
X35272057Y-112190735D01*
X35924807Y-112142800D01*
X95871208Y-112142800D01*
X96668683Y-112213973D01*
X96668683Y-112213973D01*
G37*
X96668683Y-112213973D02*
X97412491Y-112417456D01*
X98108505Y-112749438D01*
X98734730Y-113199426D01*
X99271377Y-113753203D01*
X99701471Y-114393251D01*
X100011429Y-115099353D01*
X100192665Y-115854257D01*
X100240600Y-116507007D01*
X100240601Y-176453397D01*
X100169427Y-177250883D01*
X99965944Y-177994690D01*
X99633963Y-178690704D01*
X99183974Y-179316930D01*
X98630197Y-179853577D01*
X97990149Y-180283671D01*
X97284047Y-180593629D01*
X96529143Y-180774865D01*
X95876393Y-180822800D01*
X44427838Y-180822800D01*
X35756997Y-180807361D01*
X35132517Y-180751627D01*
X34388710Y-180548144D01*
X33692696Y-180216163D01*
X33066470Y-179766174D01*
X32529823Y-179212397D01*
X32099729Y-178572349D01*
X31789771Y-177866247D01*
X31608535Y-177111343D01*
X31560600Y-176458593D01*
X31560600Y-169021495D01*
X50475600Y-169021495D01*
X50475600Y-169308105D01*
X50531515Y-169589208D01*
X50641196Y-169854001D01*
X50800428Y-170092308D01*
X51003092Y-170294972D01*
X51241399Y-170454204D01*
X51506192Y-170563885D01*
X51787295Y-170619800D01*
X52073905Y-170619800D01*
X52355008Y-170563885D01*
X52619801Y-170454204D01*
X52858108Y-170294972D01*
X53060772Y-170092308D01*
X53200600Y-169883041D01*
X53340428Y-170092308D01*
X53543092Y-170294972D01*
X53752359Y-170434800D01*
X53543092Y-170574628D01*
X53340428Y-170777292D01*
X53181196Y-171015599D01*
X53071515Y-171280392D01*
X53015600Y-171561495D01*
X53015600Y-171848105D01*
X53071515Y-172129208D01*
X53181196Y-172394001D01*
X53340428Y-172632308D01*
X53543092Y-172834972D01*
X53781399Y-172994204D01*
X54046192Y-173103885D01*
X54327295Y-173159800D01*
X54613905Y-173159800D01*
X54895008Y-173103885D01*
X55159801Y-172994204D01*
X55398108Y-172834972D01*
X55600772Y-172632308D01*
X55740600Y-172423041D01*
X55880428Y-172632308D01*
X56083092Y-172834972D01*
X56321399Y-172994204D01*
X56586192Y-173103885D01*
X56867295Y-173159800D01*
X57153905Y-173159800D01*
X57435008Y-173103885D01*
X57699801Y-172994204D01*
X57938108Y-172834972D01*
X58140772Y-172632308D01*
X58280600Y-172423041D01*
X58420428Y-172632308D01*
X58623092Y-172834972D01*
X58861399Y-172994204D01*
X59126192Y-173103885D01*
X59407295Y-173159800D01*
X59693905Y-173159800D01*
X59975008Y-173103885D01*
X60239801Y-172994204D01*
X60478108Y-172834972D01*
X60680772Y-172632308D01*
X60820600Y-172423041D01*
X60960428Y-172632308D01*
X61163092Y-172834972D01*
X61401399Y-172994204D01*
X61666192Y-173103885D01*
X61947295Y-173159800D01*
X62233905Y-173159800D01*
X62515008Y-173103885D01*
X62779801Y-172994204D01*
X63018108Y-172834972D01*
X63220772Y-172632308D01*
X63360600Y-172423041D01*
X63500428Y-172632308D01*
X63703092Y-172834972D01*
X63941399Y-172994204D01*
X64206192Y-173103885D01*
X64487295Y-173159800D01*
X64773905Y-173159800D01*
X65055008Y-173103885D01*
X65319801Y-172994204D01*
X65558108Y-172834972D01*
X65760772Y-172632308D01*
X65900600Y-172423041D01*
X66040428Y-172632308D01*
X66243092Y-172834972D01*
X66481399Y-172994204D01*
X66746192Y-173103885D01*
X67027295Y-173159800D01*
X67313905Y-173159800D01*
X67595008Y-173103885D01*
X67859801Y-172994204D01*
X68098108Y-172834972D01*
X68300772Y-172632308D01*
X68440600Y-172423041D01*
X68580428Y-172632308D01*
X68783092Y-172834972D01*
X69021399Y-172994204D01*
X69286192Y-173103885D01*
X69567295Y-173159800D01*
X69853905Y-173159800D01*
X70135008Y-173103885D01*
X70399801Y-172994204D01*
X70638108Y-172834972D01*
X70840772Y-172632308D01*
X70980600Y-172423041D01*
X71120428Y-172632308D01*
X71323092Y-172834972D01*
X71561399Y-172994204D01*
X71826192Y-173103885D01*
X72107295Y-173159800D01*
X72393905Y-173159800D01*
X72675008Y-173103885D01*
X72939801Y-172994204D01*
X73178108Y-172834972D01*
X73380772Y-172632308D01*
X73520600Y-172423041D01*
X73660428Y-172632308D01*
X73863092Y-172834972D01*
X74101399Y-172994204D01*
X74366192Y-173103885D01*
X74647295Y-173159800D01*
X74933905Y-173159800D01*
X75215008Y-173103885D01*
X75479801Y-172994204D01*
X75718108Y-172834972D01*
X75920772Y-172632308D01*
X76060600Y-172423041D01*
X76200428Y-172632308D01*
X76403092Y-172834972D01*
X76641399Y-172994204D01*
X76906192Y-173103885D01*
X77187295Y-173159800D01*
X77473905Y-173159800D01*
X77755008Y-173103885D01*
X78019801Y-172994204D01*
X78258108Y-172834972D01*
X78460772Y-172632308D01*
X78620004Y-172394001D01*
X78729685Y-172129208D01*
X78785600Y-171848105D01*
X78785600Y-171561495D01*
X78729685Y-171280392D01*
X78620004Y-171015599D01*
X78460772Y-170777292D01*
X78258108Y-170574628D01*
X78048841Y-170434800D01*
X78258108Y-170294972D01*
X78460772Y-170092308D01*
X78600600Y-169883041D01*
X78740428Y-170092308D01*
X78943092Y-170294972D01*
X79181399Y-170454204D01*
X79446192Y-170563885D01*
X79727295Y-170619800D01*
X80013905Y-170619800D01*
X80295008Y-170563885D01*
X80559801Y-170454204D01*
X80798108Y-170294972D01*
X81000772Y-170092308D01*
X81160004Y-169854001D01*
X81269685Y-169589208D01*
X81325600Y-169308105D01*
X81325600Y-169021495D01*
X81269685Y-168740392D01*
X81160004Y-168475599D01*
X81000772Y-168237292D01*
X80798108Y-168034628D01*
X80559801Y-167875396D01*
X80295008Y-167765715D01*
X80013905Y-167709800D01*
X79727295Y-167709800D01*
X79446192Y-167765715D01*
X79181399Y-167875396D01*
X78943092Y-168034628D01*
X78740428Y-168237292D01*
X78600600Y-168446559D01*
X78460772Y-168237292D01*
X78258108Y-168034628D01*
X78019801Y-167875396D01*
X77755008Y-167765715D01*
X77473905Y-167709800D01*
X77187295Y-167709800D01*
X76906192Y-167765715D01*
X76641399Y-167875396D01*
X76403092Y-168034628D01*
X76200428Y-168237292D01*
X76060600Y-168446559D01*
X75920772Y-168237292D01*
X75718108Y-168034628D01*
X75479801Y-167875396D01*
X75215008Y-167765715D01*
X74933905Y-167709800D01*
X74647295Y-167709800D01*
X74366192Y-167765715D01*
X74101399Y-167875396D01*
X73863092Y-168034628D01*
X73660428Y-168237292D01*
X73520600Y-168446559D01*
X73380772Y-168237292D01*
X73178108Y-168034628D01*
X72939801Y-167875396D01*
X72675008Y-167765715D01*
X72393905Y-167709800D01*
X72107295Y-167709800D01*
X71826192Y-167765715D01*
X71561399Y-167875396D01*
X71323092Y-168034628D01*
X71120428Y-168237292D01*
X70980600Y-168446559D01*
X70840772Y-168237292D01*
X70638108Y-168034628D01*
X70399801Y-167875396D01*
X70135008Y-167765715D01*
X69853905Y-167709800D01*
X69567295Y-167709800D01*
X69286192Y-167765715D01*
X69021399Y-167875396D01*
X68783092Y-168034628D01*
X68580428Y-168237292D01*
X68440600Y-168446559D01*
X68300772Y-168237292D01*
X68098108Y-168034628D01*
X67859801Y-167875396D01*
X67595008Y-167765715D01*
X67313905Y-167709800D01*
X67027295Y-167709800D01*
X66746192Y-167765715D01*
X66481399Y-167875396D01*
X66243092Y-168034628D01*
X66040428Y-168237292D01*
X65900600Y-168446559D01*
X65760772Y-168237292D01*
X65558108Y-168034628D01*
X65319801Y-167875396D01*
X65055008Y-167765715D01*
X64773905Y-167709800D01*
X64487295Y-167709800D01*
X64206192Y-167765715D01*
X63941399Y-167875396D01*
X63703092Y-168034628D01*
X63500428Y-168237292D01*
X63360600Y-168446559D01*
X63220772Y-168237292D01*
X63018108Y-168034628D01*
X62779801Y-167875396D01*
X62515008Y-167765715D01*
X62233905Y-167709800D01*
X61947295Y-167709800D01*
X61666192Y-167765715D01*
X61401399Y-167875396D01*
X61163092Y-168034628D01*
X60960428Y-168237292D01*
X60820600Y-168446559D01*
X60680772Y-168237292D01*
X60478108Y-168034628D01*
X60239801Y-167875396D01*
X59975008Y-167765715D01*
X59693905Y-167709800D01*
X59407295Y-167709800D01*
X59126192Y-167765715D01*
X58861399Y-167875396D01*
X58623092Y-168034628D01*
X58420428Y-168237292D01*
X58280600Y-168446559D01*
X58140772Y-168237292D01*
X57938108Y-168034628D01*
X57699801Y-167875396D01*
X57435008Y-167765715D01*
X57153905Y-167709800D01*
X56867295Y-167709800D01*
X56586192Y-167765715D01*
X56321399Y-167875396D01*
X56083092Y-168034628D01*
X55880428Y-168237292D01*
X55740600Y-168446559D01*
X55600772Y-168237292D01*
X55398108Y-168034628D01*
X55159801Y-167875396D01*
X54895008Y-167765715D01*
X54613905Y-167709800D01*
X54327295Y-167709800D01*
X54046192Y-167765715D01*
X53781399Y-167875396D01*
X53543092Y-168034628D01*
X53340428Y-168237292D01*
X53200600Y-168446559D01*
X53060772Y-168237292D01*
X52858108Y-168034628D01*
X52619801Y-167875396D01*
X52355008Y-167765715D01*
X52073905Y-167709800D01*
X51787295Y-167709800D01*
X51506192Y-167765715D01*
X51241399Y-167875396D01*
X51003092Y-168034628D01*
X50800428Y-168237292D01*
X50641196Y-168475599D01*
X50531515Y-168740392D01*
X50475600Y-169021495D01*
X31560600Y-169021495D01*
X31560600Y-153794061D01*
X46545000Y-153794061D01*
X46545000Y-153997939D01*
X46584774Y-154197898D01*
X46662795Y-154386256D01*
X46776063Y-154555774D01*
X46920226Y-154699937D01*
X47089744Y-154813205D01*
X47278102Y-154891226D01*
X47467359Y-154928871D01*
X50834001Y-158295514D01*
X50834000Y-162099300D01*
X50726795Y-162259744D01*
X50648774Y-162448102D01*
X50609000Y-162648061D01*
X50609000Y-162851939D01*
X50648774Y-163051898D01*
X50726795Y-163240256D01*
X50840063Y-163409774D01*
X50984226Y-163553937D01*
X51153744Y-163667205D01*
X51342102Y-163745226D01*
X51542061Y-163785000D01*
X51745939Y-163785000D01*
X51945898Y-163745226D01*
X52134256Y-163667205D01*
X52303774Y-163553937D01*
X52447937Y-163409774D01*
X52561205Y-163240256D01*
X52639226Y-163051898D01*
X52679000Y-162851939D01*
X52679000Y-162648061D01*
X52639226Y-162448102D01*
X52561205Y-162259744D01*
X52454000Y-162099300D01*
X52454000Y-157999788D01*
X52457919Y-157960000D01*
X52451539Y-157895226D01*
X52442280Y-157801212D01*
X52395963Y-157648527D01*
X52360951Y-157583024D01*
X52320749Y-157507810D01*
X52244893Y-157415380D01*
X52219528Y-157384472D01*
X52188618Y-157359105D01*
X51477574Y-156648061D01*
X83365000Y-156648061D01*
X83365000Y-156851939D01*
X83404774Y-157051898D01*
X83482795Y-157240256D01*
X83590000Y-157400700D01*
X83590001Y-159535202D01*
X83586081Y-159575000D01*
X83601721Y-159733787D01*
X83648038Y-159886473D01*
X83723251Y-160027189D01*
X83778852Y-160094939D01*
X83824473Y-160150528D01*
X83855383Y-160175895D01*
X87692129Y-164012642D01*
X87729774Y-164201898D01*
X87807795Y-164390256D01*
X87921063Y-164559774D01*
X88065226Y-164703937D01*
X88234744Y-164817205D01*
X88423102Y-164895226D01*
X88623061Y-164935000D01*
X88826939Y-164935000D01*
X89026898Y-164895226D01*
X89215256Y-164817205D01*
X89384774Y-164703937D01*
X89528937Y-164559774D01*
X89642205Y-164390256D01*
X89720226Y-164201898D01*
X89760000Y-164001939D01*
X89760000Y-163798061D01*
X89720226Y-163598102D01*
X89642205Y-163409744D01*
X89528937Y-163240226D01*
X89384774Y-163096063D01*
X89215256Y-162982795D01*
X89026898Y-162904774D01*
X88837642Y-162867129D01*
X85210000Y-159239488D01*
X85210000Y-157400700D01*
X85317205Y-157240256D01*
X85395226Y-157051898D01*
X85435000Y-156851939D01*
X85435000Y-156648061D01*
X85395226Y-156448102D01*
X85317205Y-156259744D01*
X85203937Y-156090226D01*
X85059774Y-155946063D01*
X84890256Y-155832795D01*
X84701898Y-155754774D01*
X84501939Y-155715000D01*
X84298061Y-155715000D01*
X84098102Y-155754774D01*
X83909744Y-155832795D01*
X83740226Y-155946063D01*
X83596063Y-156090226D01*
X83482795Y-156259744D01*
X83404774Y-156448102D01*
X83365000Y-156648061D01*
X51477574Y-156648061D01*
X48612871Y-153783359D01*
X48575226Y-153594102D01*
X48497205Y-153405744D01*
X48383937Y-153236226D01*
X48239774Y-153092063D01*
X48070256Y-152978795D01*
X47881898Y-152900774D01*
X47681939Y-152861000D01*
X47478061Y-152861000D01*
X47278102Y-152900774D01*
X47089744Y-152978795D01*
X46920226Y-153092063D01*
X46776063Y-153236226D01*
X46662795Y-153405744D01*
X46584774Y-153594102D01*
X46545000Y-153794061D01*
X31560600Y-153794061D01*
X31560600Y-151923061D01*
X81715000Y-151923061D01*
X81715000Y-152126939D01*
X81754774Y-152326898D01*
X81832795Y-152515256D01*
X81946063Y-152684774D01*
X82090226Y-152828937D01*
X82259744Y-152942205D01*
X82448102Y-153020226D01*
X82648061Y-153060000D01*
X82851939Y-153060000D01*
X83051898Y-153020226D01*
X83240256Y-152942205D01*
X83400700Y-152835000D01*
X84664488Y-152835000D01*
X88842129Y-157012642D01*
X88879774Y-157201898D01*
X88957795Y-157390256D01*
X89071063Y-157559774D01*
X89215226Y-157703937D01*
X89384744Y-157817205D01*
X89573102Y-157895226D01*
X89773061Y-157935000D01*
X89976939Y-157935000D01*
X90176898Y-157895226D01*
X90365256Y-157817205D01*
X90534774Y-157703937D01*
X90678937Y-157559774D01*
X90792205Y-157390256D01*
X90870226Y-157201898D01*
X90910000Y-157001939D01*
X90910000Y-156798061D01*
X90870226Y-156598102D01*
X90792205Y-156409744D01*
X90678937Y-156240226D01*
X90534774Y-156096063D01*
X90365256Y-155982795D01*
X90176898Y-155904774D01*
X89987642Y-155867129D01*
X85600900Y-151480388D01*
X85575528Y-151449472D01*
X85452189Y-151348251D01*
X85311473Y-151273037D01*
X85158788Y-151226720D01*
X85039791Y-151215000D01*
X85039788Y-151215000D01*
X85000000Y-151211081D01*
X84960212Y-151215000D01*
X83400700Y-151215000D01*
X83240256Y-151107795D01*
X83051898Y-151029774D01*
X82851939Y-150990000D01*
X82648061Y-150990000D01*
X82448102Y-151029774D01*
X82259744Y-151107795D01*
X82090226Y-151221063D01*
X81946063Y-151365226D01*
X81832795Y-151534744D01*
X81754774Y-151723102D01*
X81715000Y-151923061D01*
X31560600Y-151923061D01*
X31560600Y-144348061D01*
X41015000Y-144348061D01*
X41015000Y-144551939D01*
X41054774Y-144751898D01*
X41132795Y-144940256D01*
X41246063Y-145109774D01*
X41390226Y-145253937D01*
X41559744Y-145367205D01*
X41748102Y-145445226D01*
X41948061Y-145485000D01*
X42151939Y-145485000D01*
X42351898Y-145445226D01*
X42540256Y-145367205D01*
X42709774Y-145253937D01*
X42853937Y-145109774D01*
X42967205Y-144940256D01*
X43045226Y-144751898D01*
X43085000Y-144551939D01*
X43085000Y-144348061D01*
X43045226Y-144148102D01*
X43043048Y-144142845D01*
X47492494Y-139693400D01*
X48489346Y-139693400D01*
X48537544Y-139725605D01*
X48725902Y-139803626D01*
X48925861Y-139843400D01*
X49129739Y-139843400D01*
X49329698Y-139803626D01*
X49518056Y-139725605D01*
X49687574Y-139612337D01*
X49831737Y-139468174D01*
X49945005Y-139298656D01*
X50023026Y-139110298D01*
X50062800Y-138910339D01*
X50062800Y-138706461D01*
X50023026Y-138506502D01*
X49945005Y-138318144D01*
X49831737Y-138148626D01*
X49687574Y-138004463D01*
X49518056Y-137891195D01*
X49329698Y-137813174D01*
X49129739Y-137773400D01*
X48925861Y-137773400D01*
X48725902Y-137813174D01*
X48537544Y-137891195D01*
X48489346Y-137923400D01*
X47169384Y-137923400D01*
X47125915Y-137919119D01*
X47082446Y-137923400D01*
X47082438Y-137923400D01*
X46952425Y-137936205D01*
X46785602Y-137986811D01*
X46631856Y-138068989D01*
X46530868Y-138151868D01*
X46530866Y-138151870D01*
X46497098Y-138179583D01*
X46469385Y-138213351D01*
X41454952Y-143227785D01*
X41421184Y-143255498D01*
X41393471Y-143289266D01*
X41393468Y-143289269D01*
X41310590Y-143390256D01*
X41228411Y-143544002D01*
X41177805Y-143710825D01*
X41165000Y-143840838D01*
X41165000Y-143840846D01*
X41160719Y-143884315D01*
X41163606Y-143913632D01*
X41132795Y-143959744D01*
X41054774Y-144148102D01*
X41015000Y-144348061D01*
X31560600Y-144348061D01*
X31560600Y-129070661D01*
X73420600Y-129070661D01*
X73420600Y-129274539D01*
X73460374Y-129474498D01*
X73538395Y-129662856D01*
X73651663Y-129832374D01*
X73795826Y-129976537D01*
X73965344Y-130089805D01*
X74153702Y-130167826D01*
X74353661Y-130207600D01*
X74557539Y-130207600D01*
X74757498Y-130167826D01*
X74945856Y-130089805D01*
X75115374Y-129976537D01*
X75259537Y-129832374D01*
X75372805Y-129662856D01*
X75450826Y-129474498D01*
X75490600Y-129274539D01*
X75490600Y-129070661D01*
X75450826Y-128870702D01*
X75372805Y-128682344D01*
X75265600Y-128521900D01*
X75265600Y-123615312D01*
X75812841Y-123068071D01*
X76002098Y-123030426D01*
X76190456Y-122952405D01*
X76359974Y-122839137D01*
X76487600Y-122711511D01*
X76615226Y-122839137D01*
X76784744Y-122952405D01*
X76973102Y-123030426D01*
X77173061Y-123070200D01*
X77376939Y-123070200D01*
X77576898Y-123030426D01*
X77765256Y-122952405D01*
X77933519Y-122839976D01*
X77999473Y-122833480D01*
X78152158Y-122787163D01*
X78292874Y-122711949D01*
X78416213Y-122610728D01*
X78441585Y-122579812D01*
X81553419Y-119467979D01*
X81584328Y-119442613D01*
X81639919Y-119374875D01*
X81685549Y-119319275D01*
X81760762Y-119178559D01*
X81760763Y-119178558D01*
X81807080Y-119025873D01*
X81818800Y-118906876D01*
X81818800Y-118906874D01*
X81822719Y-118867086D01*
X81818800Y-118827298D01*
X81818800Y-117001464D01*
X81957355Y-116887755D01*
X82124182Y-116684475D01*
X82248147Y-116452554D01*
X82277020Y-116357372D01*
X82365739Y-116571559D01*
X82511838Y-116790213D01*
X82697787Y-116976162D01*
X82916441Y-117122261D01*
X83159395Y-117222896D01*
X83417314Y-117274200D01*
X83680286Y-117274200D01*
X83938205Y-117222896D01*
X84181159Y-117122261D01*
X84399813Y-116976162D01*
X84585762Y-116790213D01*
X84731861Y-116571559D01*
X84832496Y-116328605D01*
X84883800Y-116070686D01*
X84883800Y-115964600D01*
X85204541Y-115964600D01*
X85230317Y-116226306D01*
X85306653Y-116477954D01*
X85430618Y-116709875D01*
X85597445Y-116913155D01*
X85800725Y-117079982D01*
X86032646Y-117203947D01*
X86284294Y-117280283D01*
X86480421Y-117299600D01*
X86611579Y-117299600D01*
X86807706Y-117280283D01*
X87059354Y-117203947D01*
X87291275Y-117079982D01*
X87494555Y-116913155D01*
X87661382Y-116709875D01*
X87785347Y-116477954D01*
X87814220Y-116382772D01*
X87902939Y-116596959D01*
X88049038Y-116815613D01*
X88234987Y-117001562D01*
X88453641Y-117147661D01*
X88696595Y-117248296D01*
X88954514Y-117299600D01*
X89217486Y-117299600D01*
X89475405Y-117248296D01*
X89718359Y-117147661D01*
X89937013Y-117001562D01*
X90122962Y-116815613D01*
X90269061Y-116596959D01*
X90369696Y-116354005D01*
X90421000Y-116096086D01*
X90421000Y-115833114D01*
X90369696Y-115575195D01*
X90269061Y-115332241D01*
X90122962Y-115113587D01*
X89937013Y-114927638D01*
X89718359Y-114781539D01*
X89475405Y-114680904D01*
X89217486Y-114629600D01*
X88954514Y-114629600D01*
X88696595Y-114680904D01*
X88453641Y-114781539D01*
X88234987Y-114927638D01*
X88049038Y-115113587D01*
X87902939Y-115332241D01*
X87814220Y-115546428D01*
X87785347Y-115451246D01*
X87661382Y-115219325D01*
X87494555Y-115016045D01*
X87291275Y-114849218D01*
X87059354Y-114725253D01*
X86807706Y-114648917D01*
X86611579Y-114629600D01*
X86480421Y-114629600D01*
X86284294Y-114648917D01*
X86032646Y-114725253D01*
X85800725Y-114849218D01*
X85597445Y-115016045D01*
X85430618Y-115219325D01*
X85306653Y-115451246D01*
X85230317Y-115702894D01*
X85204541Y-115964600D01*
X84883800Y-115964600D01*
X84883800Y-115807714D01*
X84832496Y-115549795D01*
X84731861Y-115306841D01*
X84585762Y-115088187D01*
X84399813Y-114902238D01*
X84181159Y-114756139D01*
X83938205Y-114655504D01*
X83680286Y-114604200D01*
X83417314Y-114604200D01*
X83159395Y-114655504D01*
X82916441Y-114756139D01*
X82697787Y-114902238D01*
X82511838Y-115088187D01*
X82365739Y-115306841D01*
X82277020Y-115521028D01*
X82248147Y-115425846D01*
X82124182Y-115193925D01*
X81957355Y-114990645D01*
X81754075Y-114823818D01*
X81522154Y-114699853D01*
X81270506Y-114623517D01*
X81074379Y-114604200D01*
X80943221Y-114604200D01*
X80747094Y-114623517D01*
X80495446Y-114699853D01*
X80263525Y-114823818D01*
X80060245Y-114990645D01*
X79893418Y-115193925D01*
X79769453Y-115425846D01*
X79693117Y-115677494D01*
X79667341Y-115939200D01*
X79693117Y-116200906D01*
X79769453Y-116452554D01*
X79893418Y-116684475D01*
X80060245Y-116887755D01*
X80198801Y-117001465D01*
X80198800Y-118531572D01*
X77657155Y-121073218D01*
X77576898Y-121039974D01*
X77376939Y-121000200D01*
X77173061Y-121000200D01*
X76973102Y-121039974D01*
X76784744Y-121117995D01*
X76615226Y-121231263D01*
X76487600Y-121358889D01*
X76359974Y-121231263D01*
X76190456Y-121117995D01*
X76002098Y-121039974D01*
X75802139Y-121000200D01*
X75598261Y-121000200D01*
X75398302Y-121039974D01*
X75209944Y-121117995D01*
X75040426Y-121231263D01*
X74896263Y-121375426D01*
X74782995Y-121544944D01*
X74704974Y-121733302D01*
X74667329Y-121922559D01*
X73910983Y-122678905D01*
X73880073Y-122704272D01*
X73854708Y-122735180D01*
X73778851Y-122827611D01*
X73703638Y-122968327D01*
X73657321Y-123121013D01*
X73641681Y-123279800D01*
X73645601Y-123319598D01*
X73645600Y-128521900D01*
X73538395Y-128682344D01*
X73460374Y-128870702D01*
X73420600Y-129070661D01*
X31560600Y-129070661D01*
X31560600Y-116512192D01*
X31631773Y-115714717D01*
X31835256Y-114970909D01*
X32167238Y-114274895D01*
X32617226Y-113648670D01*
X33171003Y-113112023D01*
X33811051Y-112681929D01*
X34517153Y-112371971D01*
X35272057Y-112190735D01*
X35924807Y-112142800D01*
X95871208Y-112142800D01*
X96668683Y-112213973D01*
%TD*%
M02*
