%TF.GenerationSoftware,KiCad,Pcbnew,(5.1.4)-1*%
%TF.CreationDate,2021-10-06T22:06:40+03:00*%
%TF.ProjectId,IRBE_elektro_bar,49524245-5f65-46c6-956b-74726f5f6261,rev?*%
%TF.SameCoordinates,Original*%
%TF.FileFunction,Legend,Bot*%
%TF.FilePolarity,Positive*%
%FSLAX46Y46*%
G04 Gerber Fmt 4.6, Leading zero omitted, Abs format (unit mm)*
G04 Created by KiCad (PCBNEW (5.1.4)-1) date 2021-10-06 22:06:40*
%MOMM*%
%LPD*%
G04 APERTURE LIST*
%ADD10C,0.300000*%
G04 APERTURE END LIST*
D10*
X80456071Y-152903571D02*
X80268571Y-151403571D01*
X78884642Y-152903571D02*
X79295357Y-152189285D01*
X79741785Y-152903571D02*
X79554285Y-151403571D01*
X78982857Y-151403571D01*
X78848928Y-151475000D01*
X78786428Y-151546428D01*
X78732857Y-151689285D01*
X78759642Y-151903571D01*
X78848928Y-152046428D01*
X78929285Y-152117857D01*
X79081071Y-152189285D01*
X79652500Y-152189285D01*
X77643571Y-152117857D02*
X77438214Y-152189285D01*
X77375714Y-152260714D01*
X77322142Y-152403571D01*
X77348928Y-152617857D01*
X77438214Y-152760714D01*
X77518571Y-152832142D01*
X77670357Y-152903571D01*
X78241785Y-152903571D01*
X78054285Y-151403571D01*
X77554285Y-151403571D01*
X77420357Y-151475000D01*
X77357857Y-151546428D01*
X77304285Y-151689285D01*
X77322142Y-151832142D01*
X77411428Y-151975000D01*
X77491785Y-152046428D01*
X77643571Y-152117857D01*
X78143571Y-152117857D01*
X76643571Y-152117857D02*
X76143571Y-152117857D01*
X76027500Y-152903571D02*
X76741785Y-152903571D01*
X76554285Y-151403571D01*
X75840000Y-151403571D01*
X74616785Y-151903571D02*
X74741785Y-152903571D01*
X74902500Y-151332142D02*
X75393571Y-152403571D01*
X74465000Y-152403571D01*
X72715000Y-152117857D02*
X72215000Y-152117857D01*
X72098928Y-152903571D02*
X72813214Y-152903571D01*
X72625714Y-151403571D01*
X71911428Y-151403571D01*
X71241785Y-152903571D02*
X71375714Y-152832142D01*
X71429285Y-152689285D01*
X71268571Y-151403571D01*
X70090000Y-152832142D02*
X70241785Y-152903571D01*
X70527500Y-152903571D01*
X70661428Y-152832142D01*
X70715000Y-152689285D01*
X70643571Y-152117857D01*
X70554285Y-151975000D01*
X70402500Y-151903571D01*
X70116785Y-151903571D01*
X69982857Y-151975000D01*
X69929285Y-152117857D01*
X69947142Y-152260714D01*
X70679285Y-152403571D01*
X69384642Y-152903571D02*
X69197142Y-151403571D01*
X69170357Y-152332142D02*
X68813214Y-152903571D01*
X68688214Y-151903571D02*
X69331071Y-152475000D01*
X68259642Y-151903571D02*
X67688214Y-151903571D01*
X67982857Y-151403571D02*
X68143571Y-152689285D01*
X68090000Y-152832142D01*
X67956071Y-152903571D01*
X67813214Y-152903571D01*
X67313214Y-152903571D02*
X67188214Y-151903571D01*
X67223928Y-152189285D02*
X67134642Y-152046428D01*
X67054285Y-151975000D01*
X66902500Y-151903571D01*
X66759642Y-151903571D01*
X66170357Y-152903571D02*
X66304285Y-152832142D01*
X66366785Y-152760714D01*
X66420357Y-152617857D01*
X66366785Y-152189285D01*
X66277499Y-152046428D01*
X66197142Y-151975000D01*
X66045357Y-151903571D01*
X65831071Y-151903571D01*
X65697142Y-151975000D01*
X65634642Y-152046428D01*
X65581071Y-152189285D01*
X65634642Y-152617857D01*
X65723928Y-152760714D01*
X65804285Y-152832142D01*
X65956071Y-152903571D01*
X66170357Y-152903571D01*
X65027500Y-152903571D02*
X64840000Y-151403571D01*
X64911428Y-151975000D02*
X64759642Y-151903571D01*
X64473928Y-151903571D01*
X64339999Y-151975000D01*
X64277499Y-152046428D01*
X64223928Y-152189285D01*
X64277500Y-152617857D01*
X64366785Y-152760714D01*
X64447142Y-152832142D01*
X64598928Y-152903571D01*
X64884642Y-152903571D01*
X65018571Y-152832142D01*
X63027500Y-152903571D02*
X62929285Y-152117857D01*
X62982857Y-151975000D01*
X63116785Y-151903571D01*
X63402500Y-151903571D01*
X63554285Y-151975000D01*
X63018571Y-152832142D02*
X63170357Y-152903571D01*
X63527500Y-152903571D01*
X63661428Y-152832142D01*
X63715000Y-152689285D01*
X63697142Y-152546428D01*
X63607857Y-152403571D01*
X63456071Y-152332142D01*
X63098928Y-152332142D01*
X62947142Y-152260714D01*
X62313214Y-152903571D02*
X62188214Y-151903571D01*
X62223928Y-152189285D02*
X62134642Y-152046428D01*
X62054285Y-151975000D01*
X61902500Y-151903571D01*
X61759642Y-151903571D01*
X61170357Y-152903571D02*
X61304285Y-152832142D01*
X61366785Y-152760714D01*
X61420357Y-152617857D01*
X61366785Y-152189285D01*
X61277500Y-152046428D01*
X61197142Y-151975000D01*
X61045357Y-151903571D01*
X60831071Y-151903571D01*
X60697142Y-151975000D01*
X60634642Y-152046428D01*
X60581071Y-152189285D01*
X60634642Y-152617857D01*
X60723928Y-152760714D01*
X60804285Y-152832142D01*
X60956071Y-152903571D01*
X61170357Y-152903571D01*
X60090000Y-152832142D02*
X59956071Y-152903571D01*
X59670357Y-152903571D01*
X59518571Y-152832142D01*
X59429285Y-152689285D01*
X59420357Y-152617857D01*
X59473928Y-152475000D01*
X59607857Y-152403571D01*
X59822142Y-152403571D01*
X59956071Y-152332142D01*
X60009642Y-152189285D01*
X60000714Y-152117857D01*
X59911428Y-151975000D01*
X59759642Y-151903571D01*
X59545357Y-151903571D01*
X59411428Y-151975000D01*
X59902500Y-151332142D02*
X59643571Y-151546428D01*
X59331071Y-151332142D01*
X58170357Y-152903571D02*
X58072142Y-152117857D01*
X58125714Y-151975000D01*
X58259642Y-151903571D01*
X58545357Y-151903571D01*
X58697142Y-151975000D01*
X58161428Y-152832142D02*
X58313214Y-152903571D01*
X58670357Y-152903571D01*
X58804285Y-152832142D01*
X58857857Y-152689285D01*
X58840000Y-152546428D01*
X58750714Y-152403571D01*
X58598928Y-152332142D01*
X58241785Y-152332142D01*
X58090000Y-152260714D01*
X57331071Y-151903571D02*
X57456071Y-152903571D01*
X57348928Y-152046428D02*
X57268571Y-151975000D01*
X57116785Y-151903571D01*
X56902500Y-151903571D01*
X56768571Y-151975000D01*
X56715000Y-152117857D01*
X56813214Y-152903571D01*
X55456071Y-152903571D02*
X55357857Y-152117857D01*
X55411428Y-151975000D01*
X55545357Y-151903571D01*
X55831071Y-151903571D01*
X55982857Y-151975000D01*
X55447142Y-152832142D02*
X55598928Y-152903571D01*
X55956071Y-152903571D01*
X56090000Y-152832142D01*
X56143571Y-152689285D01*
X56125714Y-152546428D01*
X56036428Y-152403571D01*
X55884642Y-152332142D01*
X55527500Y-152332142D01*
X55375714Y-152260714D01*
X53625714Y-151403571D02*
X53313214Y-152903571D01*
X52625714Y-151403571D01*
X51527500Y-152903571D02*
X52384642Y-152903571D01*
X51956071Y-152903571D02*
X51768571Y-151403571D01*
X51938214Y-151617857D01*
X52098928Y-151760714D01*
X52250714Y-151832142D01*
X50866785Y-152760714D02*
X50804285Y-152832142D01*
X50884642Y-152903571D01*
X50947142Y-152832142D01*
X50866785Y-152760714D01*
X50884642Y-152903571D01*
X49697142Y-151403571D02*
X49554285Y-151403571D01*
X49420357Y-151475000D01*
X49357857Y-151546428D01*
X49304285Y-151689285D01*
X49268571Y-151975000D01*
X49313214Y-152332142D01*
X49420357Y-152617857D01*
X49509642Y-152760714D01*
X49590000Y-152832142D01*
X49741785Y-152903571D01*
X49884642Y-152903571D01*
X50018571Y-152832142D01*
X50081071Y-152760714D01*
X50134642Y-152617857D01*
X50170357Y-152332142D01*
X50125714Y-151975000D01*
X50018571Y-151689285D01*
X49929285Y-151546428D01*
X49848928Y-151475000D01*
X49697142Y-151403571D01*
X70554285Y-153953571D02*
X70411428Y-153953571D01*
X70277500Y-154025000D01*
X70215000Y-154096428D01*
X70161428Y-154239285D01*
X70125714Y-154525000D01*
X70170357Y-154882142D01*
X70277500Y-155167857D01*
X70366785Y-155310714D01*
X70447142Y-155382142D01*
X70598928Y-155453571D01*
X70741785Y-155453571D01*
X70875714Y-155382142D01*
X70938214Y-155310714D01*
X70991785Y-155167857D01*
X71027500Y-154882142D01*
X70982857Y-154525000D01*
X70875714Y-154239285D01*
X70786428Y-154096428D01*
X70706071Y-154025000D01*
X70554285Y-153953571D01*
X68768571Y-153953571D02*
X69054285Y-153953571D01*
X69206071Y-154025000D01*
X69286428Y-154096428D01*
X69456071Y-154310714D01*
X69563214Y-154596428D01*
X69634642Y-155167857D01*
X69581071Y-155310714D01*
X69518571Y-155382142D01*
X69384642Y-155453571D01*
X69098928Y-155453571D01*
X68947142Y-155382142D01*
X68866785Y-155310714D01*
X68777500Y-155167857D01*
X68732857Y-154810714D01*
X68786428Y-154667857D01*
X68848928Y-154596428D01*
X68982857Y-154525000D01*
X69268571Y-154525000D01*
X69420357Y-154596428D01*
X69500714Y-154667857D01*
X69590000Y-154810714D01*
X68152500Y-155310714D02*
X68090000Y-155382142D01*
X68170357Y-155453571D01*
X68232857Y-155382142D01*
X68152500Y-155310714D01*
X68170357Y-155453571D01*
X66670357Y-155453571D02*
X67527500Y-155453571D01*
X67098928Y-155453571D02*
X66911428Y-153953571D01*
X67081071Y-154167857D01*
X67241785Y-154310714D01*
X67393571Y-154382142D01*
X65554285Y-153953571D02*
X65411428Y-153953571D01*
X65277500Y-154025000D01*
X65215000Y-154096428D01*
X65161428Y-154239285D01*
X65125714Y-154525000D01*
X65170357Y-154882142D01*
X65277500Y-155167857D01*
X65366785Y-155310714D01*
X65447142Y-155382142D01*
X65598928Y-155453571D01*
X65741785Y-155453571D01*
X65875714Y-155382142D01*
X65938214Y-155310714D01*
X65991785Y-155167857D01*
X66027500Y-154882142D01*
X65982857Y-154525000D01*
X65875714Y-154239285D01*
X65786428Y-154096428D01*
X65706071Y-154025000D01*
X65554285Y-153953571D01*
X64581071Y-155310714D02*
X64518571Y-155382142D01*
X64598928Y-155453571D01*
X64661428Y-155382142D01*
X64581071Y-155310714D01*
X64598928Y-155453571D01*
X63786428Y-154096428D02*
X63706071Y-154025000D01*
X63554285Y-153953571D01*
X63197142Y-153953571D01*
X63063214Y-154025000D01*
X63000714Y-154096428D01*
X62947142Y-154239285D01*
X62965000Y-154382142D01*
X63063214Y-154596428D01*
X64027500Y-155453571D01*
X63098928Y-155453571D01*
X61982857Y-153953571D02*
X61840000Y-153953571D01*
X61706071Y-154025000D01*
X61643571Y-154096428D01*
X61590000Y-154239285D01*
X61554285Y-154525000D01*
X61598928Y-154882142D01*
X61706071Y-155167857D01*
X61795357Y-155310714D01*
X61875714Y-155382142D01*
X62027500Y-155453571D01*
X62170357Y-155453571D01*
X62304285Y-155382142D01*
X62366785Y-155310714D01*
X62420357Y-155167857D01*
X62456071Y-154882142D01*
X62411428Y-154525000D01*
X62304285Y-154239285D01*
X62215000Y-154096428D01*
X62134642Y-154025000D01*
X61982857Y-153953571D01*
X60929285Y-154096428D02*
X60848928Y-154025000D01*
X60697142Y-153953571D01*
X60340000Y-153953571D01*
X60206071Y-154025000D01*
X60143571Y-154096428D01*
X60090000Y-154239285D01*
X60107857Y-154382142D01*
X60206071Y-154596428D01*
X61170357Y-155453571D01*
X60241785Y-155453571D01*
X58813214Y-155453571D02*
X59670357Y-155453571D01*
X59241785Y-155453571D02*
X59054285Y-153953571D01*
X59223928Y-154167857D01*
X59384642Y-154310714D01*
X59536428Y-154382142D01*
M02*
