M48
; DRILL file {KiCad (5.1.4)-1} date 06.10.2021 22:06:38
; FORMAT={-:-/ absolute / inch / decimal}
; #@! TF.CreationDate,2021-10-06T22:06:38+03:00
; #@! TF.GenerationSoftware,Kicad,Pcbnew,(5.1.4)-1
; #@! TF.FileFunction,Plated,1,2,PTH
FMAT,2
INCH
T1C0.0157
T2C0.0276
T3C0.0315
T4C0.0409
%
G90
G05
T1
X1.6555Y-5.687
X1.8732Y-6.0589
X1.9302Y-5.4649
X2.0332Y-6.4075
X2.9313Y-5.0855
X2.9803Y-4.8045
X3.0423Y-4.8045
X3.2579Y-5.9852
X3.3228Y-6.1713
X3.4931Y-6.4528
X3.5384Y-6.1772
T2
X3.1893Y-4.5645
X3.2893Y-4.5645
X3.4073Y-4.5655
X3.5073Y-4.5655
T3
X1.2904Y-6.4764
X1.2904Y-6.5764
X1.2904Y-6.6764
X1.2904Y-6.7764
X1.2904Y-6.8764
X1.2992Y-6.9636
X1.3573Y-5.2687
X1.3583Y-5.3612
X1.3602Y-4.4754
X1.3602Y-4.5754
X1.3602Y-4.6754
X1.3602Y-4.7754
X1.3602Y-4.8754
X1.3602Y-4.9754
X1.3602Y-5.0754
X1.3602Y-5.1754
X1.3888Y-6.4764
X1.3888Y-6.5764
X1.3888Y-6.6764
X1.3888Y-6.7764
X1.3888Y-6.8764
X1.3907Y-6.9695
X1.3907Y-7.0695
X1.4537Y-5.2707
X1.4537Y-5.3593
X1.4602Y-4.4754
X1.4602Y-4.5754
X1.4602Y-4.6754
X1.4602Y-4.7754
X1.4602Y-4.8754
X1.4602Y-4.9754
X1.4602Y-5.0754
X1.4602Y-5.1754
X1.4872Y-6.4764
X1.4872Y-6.5764
X1.4872Y-6.6764
X1.4872Y-6.7764
X1.4872Y-6.8764
X1.4907Y-6.9695
X1.4907Y-7.0695
X1.5602Y-4.4754
X1.5602Y-4.5754
X1.5602Y-4.6754
X1.5602Y-4.7754
X1.5602Y-4.8754
X1.5602Y-4.9754
X1.5602Y-5.0754
X1.5602Y-5.1754
X1.561Y-5.2785
X1.563Y-5.3593
X1.5907Y-6.9695
X1.5907Y-7.0695
X1.6594Y-5.2913
X1.6594Y-5.372
X1.6602Y-4.4754
X1.6602Y-4.5754
X1.6602Y-4.6754
X1.6602Y-4.7754
X1.6602Y-4.8754
X1.6602Y-4.9754
X1.6602Y-5.0754
X1.6602Y-5.1754
X1.6841Y-6.6358
X1.687Y-6.7224
X1.6907Y-6.9695
X1.6907Y-7.0695
X1.7598Y-5.3839
X1.7602Y-4.4754
X1.7602Y-4.5754
X1.7602Y-4.6754
X1.7602Y-4.7754
X1.7602Y-4.8754
X1.7602Y-4.9754
X1.7602Y-5.0754
X1.7602Y-5.1754
X1.7618Y-5.2953
X1.7697Y-6.6368
X1.7697Y-6.7313
X1.7907Y-6.9695
X1.7907Y-7.0695
X1.813Y-6.8041
X1.8524Y-6.7323
X1.8553Y-6.6368
X1.8573Y-5.2648
X1.8602Y-4.4754
X1.8602Y-4.5754
X1.8602Y-4.6754
X1.8602Y-4.7754
X1.8602Y-4.8754
X1.8602Y-4.9754
X1.8602Y-5.0754
X1.8602Y-5.1754
X1.8907Y-6.9695
X1.8907Y-7.0695
X1.8976Y-6.8022
X1.9311Y-6.6339
X1.9341Y-6.7283
X1.9602Y-4.4754
X1.9602Y-4.5754
X1.9602Y-4.6754
X1.9602Y-4.7754
X1.9602Y-4.8754
X1.9602Y-4.9754
X1.9602Y-5.0754
X1.9602Y-5.1754
X1.9907Y-6.9695
X1.9907Y-7.0695
X2.0602Y-4.4754
X2.0602Y-4.5754
X2.0602Y-4.6754
X2.0602Y-4.7754
X2.0602Y-4.8754
X2.0602Y-4.9754
X2.0602Y-5.0754
X2.0602Y-5.1754
X2.0907Y-6.9695
X2.0907Y-7.0695
X2.1907Y-6.9695
X2.1907Y-7.0695
X2.2156Y-5.5384
X2.2156Y-5.6384
X2.2156Y-5.7384
X2.2156Y-5.8384
X2.2907Y-6.9695
X2.2907Y-7.0695
X2.3156Y-5.5384
X2.3156Y-5.6384
X2.3156Y-5.7384
X2.3156Y-5.8384
X2.3563Y-4.6614
X2.3907Y-6.9695
X2.3907Y-7.0695
X2.4156Y-5.5384
X2.4156Y-5.6384
X2.4156Y-5.7384
X2.4156Y-5.8384
X2.4222Y-4.5974
X2.4907Y-6.9695
X2.4907Y-7.0695
X2.499Y-4.5453
X2.5059Y-4.6447
X2.5156Y-5.5384
X2.5156Y-5.6384
X2.5156Y-5.7384
X2.5156Y-5.8384
X2.5907Y-6.9695
X2.5907Y-7.0695
X2.5925Y-4.6447
X2.5965Y-4.5433
X2.6156Y-5.5384
X2.6156Y-5.6384
X2.6156Y-5.7384
X2.6156Y-5.8384
X2.685Y-4.6467
X2.6907Y-6.9695
X2.6907Y-7.0695
X2.6909Y-4.5443
X2.7785Y-4.6545
X2.7835Y-4.5433
X2.7907Y-6.9695
X2.7907Y-7.0695
X2.8632Y-4.6604
X2.8632Y-4.7608
X2.8701Y-4.5433
X2.8907Y-6.9695
X2.8907Y-7.0695
X2.9567Y-4.6594
X2.9616Y-4.5453
X2.9626Y-6.4596
X2.9734Y-6.5413
X2.9907Y-6.9695
X2.9907Y-7.0695
X3.0394Y-4.6555
X3.0443Y-6.4469
X3.0581Y-6.5482
X3.064Y-4.5472
X3.0907Y-6.9695
X3.0907Y-7.0695
X3.1211Y-6.4459
X3.1339Y-5.7234
X3.1339Y-5.8234
X3.1447Y-6.5472
X3.1907Y-6.9695
X3.1907Y-7.0695
X3.2037Y-6.4409
X3.2224Y-6.5167
X3.2234Y-6.5955
X3.2339Y-5.7234
X3.2339Y-5.8234
X3.2907Y-6.9695
X3.2907Y-7.0695
X3.2972Y-6.8081
X3.3012Y-6.7156
X3.3031Y-6.44
X3.3041Y-6.5256
X3.3041Y-6.6171
X3.3339Y-5.7234
X3.3339Y-5.8234
X3.3819Y-6.8071
X3.3819Y-6.9793
X3.3829Y-7.0758
X3.3868Y-6.4478
X3.3937Y-6.5413
X3.3957Y-6.7175
X3.3996Y-6.6299
X3.4656Y-6.9774
X3.4675Y-7.0768
X3.4705Y-6.8061
X3.562Y-6.9764
X3.562Y-7.0728
X3.563Y-6.8061
X3.6555Y-7.0679
X3.6565Y-6.8051
X3.6575Y-6.9754
X3.7392Y-7.0669
X3.7411Y-6.8041
X3.7421Y-6.9724
X3.748Y-5.5295
X3.749Y-4.5079
X3.749Y-4.6079
X3.749Y-4.7079
X3.749Y-4.8079
X3.749Y-4.9079
X3.749Y-5.0079
X3.749Y-5.1079
X3.749Y-5.2079
X3.749Y-5.3079
X3.749Y-5.4079
X3.8159Y-6.7726
X3.8238Y-6.9744
X3.8327Y-7.0689
X3.849Y-4.5079
X3.849Y-4.6079
X3.849Y-4.7079
X3.849Y-4.8079
X3.849Y-4.9079
X3.849Y-5.0079
X3.849Y-5.1079
X3.849Y-5.2079
X3.849Y-5.3079
X3.849Y-5.4079
X3.8524Y-5.5276
T4
X2.0445Y-6.66
X2.0445Y-6.76
X2.1445Y-6.66
X2.1445Y-6.76
X2.2445Y-6.66
X2.2445Y-6.76
X2.3445Y-6.66
X2.3445Y-6.76
X2.4445Y-6.66
X2.4445Y-6.76
X2.5445Y-6.66
X2.5445Y-6.76
X2.6445Y-6.66
X2.6445Y-6.76
X2.7445Y-6.66
X2.7445Y-6.76
X2.8445Y-6.66
X2.8445Y-6.76
X2.9445Y-6.66
X2.9445Y-6.76
X3.0445Y-6.66
X3.0445Y-6.76
X3.1445Y-6.66
X3.1445Y-6.76
T0
M30
